<?xml version="1.0" encoding="UTF-8"?><svg xmlns="http://www.w3.org/2000/svg" xmlns:xlink="http://www.w3.org/1999/xlink" width="1012.5" zoomAndPan="magnify" viewBox="0 0 1012.5 487.499991" height="487.499991" preserveAspectRatio="xMidYMid meet" version="1.0"><path fill="rgb(37.649536%, 64.309692%, 100%)" d="M 142.238281 377.8125 L 142.238281 75.082031 C 138.523438 73.160156 135.085938 69.988281 132.558594 65.125 C 125.855469 52.207031 101.988281 49.425781 105.636719 63.769531 C 108.578125 75.328125 116.992188 98.191406 108.179688 99.585938 C 108.351562 101.753906 98.886719 101.796875 98.316406 99.046875 C 94.929688 97.871094 78.660156 110.082031 71.011719 87.992188 C 37.125 80.980469 61.019531 102.167969 36.609375 85.558594 C 30.195312 81.191406 1.242188 90.40625 19.113281 98.058594 C 30.945312 103.128906 0.585938 114.050781 21.546875 124.453125 C 31.335938 129.316406 29.394531 123.628906 43.984375 131.925781 C 56.066406 138.789062 91.390625 161.53125 78.441406 179.714844 C 77.882812 180.503906 82.421875 200.960938 93.878906 204.253906 C 102.867188 206.839844 97.222656 230.234375 103.855469 235.886719 C 107.398438 238.90625 98.351562 248.074219 97.835938 258.382812 C 95.882812 297.425781 56.007812 337.863281 66.316406 342.039062 C 84.964844 349.589844 70.621094 356.703125 80.761719 362.558594 C 84.179688 364.527344 89.109375 366.589844 96.3125 368.515625 C 99.824219 369.449219 100.492188 373.9375 113.382812 373.9375 C 118.917969 373.9375 119.019531 381.808594 142.238281 377.8125 Z M 142.238281 377.8125 " fill-opacity="1" fill-rule="evenodd"/><path fill="rgb(100%, 100%, 100%)" d="M 142.238281 75.082031 L 142.238281 377.8125 C 143.378906 377.613281 144.574219 377.386719 145.832031 377.132812 C 159.734375 374.300781 148.992188 389.597656 171.242188 384.230469 C 184.511719 381.027344 171.796875 403.355469 191.996094 399.238281 C 198.730469 397.867188 202.113281 408.53125 213.019531 400.761719 C 215.746094 398.820312 221.933594 401.765625 223.960938 403.566406 C 218.769531 379.347656 226.839844 365.90625 251.210938 359.636719 C 268.121094 355.285156 264.246094 362.1875 271.105469 365.375 L 271.105469 41.363281 C 269.570312 39.46875 267.574219 37.519531 264.816406 35.566406 C 253.886719 27.824219 249.410156 17.652344 243.085938 8.566406 C 194.796875 20.152344 228.664062 16.527344 211.066406 41.238281 C 209.265625 43.773438 215.785156 49.378906 193.667969 57.808594 C 180.179688 62.945312 167.503906 54.75 166.097656 71.628906 C 165.738281 75.917969 152.855469 80.578125 142.238281 75.082031 Z M 142.238281 75.082031 " fill-opacity="1" fill-rule="evenodd"/><path fill="rgb(100%, 35.289001%, 34.509277%)" d="M 271.105469 41.363281 L 271.105469 365.375 C 274.171875 366.800781 279.390625 367.480469 289.566406 366.082031 C 305.792969 363.851562 311.152344 382 325.074219 382.738281 C 332.546875 383.128906 343.625 377.511719 345.421875 368.679688 C 347.335938 359.292969 375.957031 365.34375 378.582031 344.03125 C 380.320312 329.894531 389.308594 334.253906 368.34375 332.386719 C 367.964844 332.351562 346.324219 319.8125 362.863281 309.464844 C 371.777344 303.890625 333.046875 280.566406 359.78125 281.621094 C 363.390625 281.761719 371.066406 272.929688 358.425781 264.234375 C 349.871094 258.34375 366.441406 255.796875 363.851562 249.761719 C 357.667969 235.359375 368.042969 231.527344 346.253906 225.691406 C 335.597656 222.835938 335.070312 200.507812 351.464844 198.710938 C 362.464844 197.503906 368.019531 186.152344 374.679688 184.804688 C 387.113281 182.292969 378.53125 141.765625 392.773438 129.324219 C 412.199219 112.34375 388.652344 108.242188 365.578125 103.542969 C 356.699219 101.730469 359.253906 94.933594 346.074219 91.835938 C 334.105469 89.027344 341.679688 80.835938 320.941406 78.835938 C 298.277344 76.652344 310.328125 59.273438 298.671875 59.273438 C 274.667969 59.273438 278.960938 51.058594 271.105469 41.363281 Z M 271.105469 41.363281 " fill-opacity="1" fill-rule="evenodd"/><path fill="rgb(0%, 0%, 0%)" d="M 407.550781 114.941406 C 404.445312 103.230469 388.175781 99.933594 369.335938 96.109375 L 367.179688 95.671875 C 365.734375 95.378906 365.496094 95.113281 363.964844 93.417969 C 361.40625 90.578125 357.535156 86.285156 347.910156 84.019531 C 345.742188 83.515625 345.542969 83.246094 344.234375 81.515625 C 340.582031 76.683594 336.117188 72.230469 321.710938 70.84375 C 314.324219 70.132812 313.957031 68.53125 312.964844 64.253906 C 312.140625 60.695312 309.953125 51.246094 298.667969 51.246094 C 290.578125 51.246094 287.167969 50.21875 285.734375 49.355469 C 284.632812 48.699219 284.082031 47.730469 282.652344 44.894531 C 280.488281 40.601562 277.523438 34.726562 269.457031 29.015625 C 262.460938 24.058594 258.464844 17.710938 254.238281 10.984375 C 252.796875 8.691406 251.300781 6.320312 249.671875 3.980469 C 247.785156 1.265625 244.421875 -0.0117188 241.207031 0.757812 C 219.332031 6.007812 212.472656 8.355469 209.15625 13.789062 C 206.660156 17.878906 207.621094 21.820312 208.199219 24.179688 C 208.847656 26.832031 209.515625 29.574219 204.527344 36.582031 C 202.585938 39.304688 202.640625 42.171875 202.667969 43.542969 C 202.667969 43.660156 202.671875 43.796875 202.671875 43.914062 C 202.164062 44.542969 199.796875 46.878906 190.804688 50.304688 C 187.402344 51.601562 183.730469 51.761719 180.175781 51.914062 C 172.839844 52.234375 160.792969 52.757812 158.378906 68.542969 C 156.691406 69.261719 153.332031 69.996094 149.59375 69.230469 C 145.25 68.347656 141.914062 65.71875 139.6875 61.429688 C 133.183594 48.902344 116.585938 43.589844 106.644531 47.375 C 99.1875 50.210938 95.738281 57.425781 97.855469 65.75 C 98.375 67.808594 99.046875 70.144531 99.757812 72.617188 C 101.144531 77.453125 104.207031 88.128906 104.105469 92.664062 C 103.929688 92.769531 103.757812 92.878906 103.589844 92.996094 C 102.832031 92.324219 101.9375 91.800781 100.945312 91.460938 C 97.707031 90.339844 94.738281 91.234375 91.867188 92.09375 C 85.480469 94.019531 81.960938 95.078125 78.601562 85.367188 C 77.675781 82.695312 75.410156 80.703125 72.640625 80.128906 C 59.578125 77.429688 51.496094 78.054688 46.484375 82.4375 C 45.214844 81.652344 43.488281 80.527344 41.128906 78.921875 C 34.027344 74.089844 20.472656 77.042969 13.40625 81.03125 C 6.046875 85.1875 5.203125 90.507812 5.359375 93.308594 C 5.570312 97.191406 7.644531 100.46875 11.535156 103.082031 C 8.546875 106.851562 4.757812 112.242188 6.25 118.984375 C 7.386719 124.152344 11.21875 128.296875 17.980469 131.648438 C 23.214844 134.25 26.25 134.628906 29.402344 134.839844 C 31.417969 134.972656 33.316406 135.097656 40.019531 138.902344 C 54.957031 147.398438 70.953125 160.15625 73.023438 169.519531 C 73.488281 171.644531 73.15625 173.300781 71.902344 175.0625 C 70.625 176.851562 68.878906 179.304688 72.617188 190.007812 C 74.925781 196.625 80.28125 208.007812 90.566406 211.621094 C 91.300781 213.578125 91.65625 218.347656 91.882812 221.316406 C 92.355469 227.691406 92.84375 234.238281 96.015625 239.019531 C 95.679688 239.769531 95.277344 240.613281 94.9375 241.324219 C 92.914062 245.574219 90.148438 251.386719 89.816406 257.984375 C 88.820312 277.9375 76.417969 299.199219 67.359375 314.726562 C 59.292969 328.558594 54.847656 336.183594 57.203125 343.082031 C 58.203125 346.023438 60.371094 348.296875 63.304688 349.480469 C 67.277344 351.09375 68.441406 352.261719 68.683594 352.550781 C 68.71875 352.882812 68.6875 353.59375 68.667969 354.125 C 68.523438 357.519531 68.214844 364.585938 76.746094 369.511719 C 81.183594 372.074219 86.757812 374.246094 93.785156 376.148438 C 93.9375 376.253906 94.125 376.398438 94.277344 376.515625 C 97.773438 379.101562 102.371094 381.863281 112.789062 381.96875 C 113.003906 382.09375 113.289062 382.265625 113.515625 382.402344 C 119.449219 386.007812 126.953125 389.175781 147.433594 385.003906 C 147.640625 384.960938 147.824219 384.929688 147.988281 384.902344 C 152.679688 392.589844 159.421875 394.871094 170.917969 392.527344 C 171.617188 396.074219 172.863281 401.695312 178.039062 405.148438 C 181.894531 407.71875 186.816406 408.394531 193.078125 407.210938 C 193.511719 407.414062 194.21875 407.828125 194.757812 408.140625 C 197.023438 409.472656 200.722656 411.636719 205.601562 411.636719 C 208.664062 411.636719 212.191406 410.785156 216.121094 408.34375 C 217.015625 408.640625 218.175781 409.214844 218.628906 409.570312 C 221.226562 411.875 225.007812 412.253906 228.003906 410.503906 C 231.003906 408.757812 232.542969 405.277344 231.816406 401.886719 C 227.46875 381.613281 233.070312 372.589844 253.210938 367.414062 C 257.441406 366.328125 259.425781 366.234375 260.1875 366.273438 C 260.3125 366.421875 260.445312 366.589844 260.558594 366.734375 C 265.769531 373.265625 272.363281 376.550781 290.664062 374.039062 C 295.691406 373.347656 298.800781 375.804688 304.324219 380.566406 C 309.339844 384.894531 315.578125 390.277344 324.648438 390.753906 C 335.667969 391.339844 349.566406 383.71875 352.941406 371.738281 C 354.332031 371.128906 357.097656 370.40625 359.039062 369.898438 C 368.484375 367.425781 384.300781 363.285156 386.550781 345.011719 C 386.960938 341.695312 387.84375 340.046875 388.488281 338.847656 C 389.253906 337.421875 391.28125 333.632812 388.894531 329.480469 C 386.441406 325.222656 382.257812 325.082031 378.566406 324.953125 C 376.824219 324.894531 374.316406 324.8125 370.808594 324.535156 C 368.175781 322.796875 365.054688 319.820312 364.703125 318.328125 C 364.875 318.0625 365.460938 317.3125 367.125 316.273438 C 369.878906 314.550781 371.660156 311.894531 372.132812 308.792969 C 373.117188 302.363281 368.363281 296.796875 363.328125 290.910156 C 362.949219 290.460938 362.511719 289.953125 362.058594 289.417969 C 366.652344 288.433594 370.945312 284.503906 372.636719 279.402344 C 373.484375 276.867188 375.238281 268.761719 367.007812 260.875 C 370.1875 258.054688 374.066406 253.203125 371.234375 246.597656 C 369.726562 243.097656 369.570312 240.601562 369.402344 237.957031 C 369.183594 234.535156 368.882812 229.847656 364.90625 225.75 C 361.761719 222.507812 356.960938 220.246094 348.332031 217.933594 C 347.753906 217.78125 346.46875 215.765625 346.699219 212.730469 C 346.886719 210.238281 348.019531 207.171875 352.34375 206.691406 C 361.265625 205.714844 367.304688 200.28125 371.714844 196.316406 C 373.203125 194.980469 375.457031 192.953125 376.273438 192.675781 C 388.203125 190.265625 389.617188 175.980469 390.984375 162.167969 C 391.976562 152.113281 393.214844 139.601562 398.054688 135.371094 C 401.050781 132.753906 410.160156 124.792969 407.550781 114.941406 Z M 249.210938 351.855469 C 225.4375 357.972656 213.972656 371.199219 214.464844 392.128906 C 212.335938 392.261719 210.238281 392.882812 208.363281 394.21875 C 205.832031 396.019531 205.835938 396.019531 202.878906 394.289062 C 200.617188 392.960938 197.40625 391.078125 193.234375 391.078125 C 192.332031 391.078125 191.382812 391.167969 190.386719 391.367188 C 188.753906 391.703125 187.746094 391.738281 187.203125 391.707031 C 186.984375 391.007812 186.765625 389.894531 186.609375 389.097656 C 185.960938 385.769531 184.976562 380.742188 180.367188 377.785156 C 177.347656 375.847656 173.644531 375.390625 169.363281 376.421875 C 164.820312 377.519531 162.804688 377.386719 162.15625 377.28125 C 162.003906 377.054688 161.808594 376.726562 161.648438 376.46875 C 160.265625 374.164062 157.386719 369.382812 150.265625 368.824219 L 150.265625 262.554688 C 150.265625 258.121094 146.671875 254.527344 142.238281 254.527344 C 137.804688 254.527344 134.207031 258.121094 134.207031 262.554688 L 134.207031 370.777344 C 126.347656 371.402344 123.742188 369.824219 121.859375 368.675781 C 120.042969 367.578125 117.296875 365.910156 113.382812 365.910156 C 106.941406 365.910156 105.363281 364.742188 103.84375 363.613281 C 102.601562 362.6875 100.898438 361.425781 98.382812 360.757812 C 92.601562 359.214844 88.023438 357.476562 84.777344 355.605469 C 84.742188 355.582031 84.710938 355.566406 84.679688 355.550781 C 84.6875 355.304688 84.699219 355.039062 84.710938 354.808594 C 84.980469 348.484375 83.714844 341.953125 73.644531 336.59375 C 75.257812 333.050781 78.496094 327.503906 81.230469 322.8125 C 91.117188 305.859375 104.664062 282.640625 105.855469 258.78125 C 106.019531 255.390625 107.835938 251.585938 109.433594 248.226562 C 111.847656 243.167969 115.472656 235.558594 109.335938 230.015625 C 108.515625 228.429688 108.128906 223.253906 107.894531 220.117188 C 107.242188 211.410156 106.351562 199.484375 96.097656 196.535156 C 91.8125 195.300781 87.960938 186.269531 86.761719 181.46875 C 89.222656 176.726562 89.894531 171.460938 88.699219 166.054688 C 84.605469 147.53125 58.839844 131.128906 47.953125 124.941406 C 38.796875 119.734375 34.613281 119.085938 30.460938 118.808594 C 28.808594 118.699219 27.898438 118.640625 25.117188 117.261719 C 23.667969 116.542969 22.804688 115.953125 22.3125 115.554688 C 22.90625 114.566406 24.042969 113.144531 24.796875 112.210938 C 27.453125 108.898438 31.097656 104.359375 29.667969 98.636719 C 29.261719 97.007812 28.335938 94.972656 26.292969 93.160156 C 28.703125 92.570312 31.199219 92.257812 32.566406 92.515625 C 41.574219 98.628906 45.792969 101 50.609375 99.851562 C 54.484375 98.929688 56.28125 96.046875 57.039062 94.703125 C 57.945312 94.53125 60.265625 94.324219 65.238281 95.097656 C 74.03125 113.6875 89.976562 109.421875 96.046875 107.605469 C 99.1875 109.136719 103.148438 109.511719 106.773438 109 C 109.667969 108.585938 111.738281 107.566406 113.179688 106.289062 C 115.019531 105.332031 116.578125 103.90625 117.734375 102.089844 C 122.332031 94.878906 119.578125 83.488281 115.191406 68.1875 C 114.5625 65.988281 113.964844 63.898438 113.511719 62.148438 C 116.609375 61.996094 123.050781 64.230469 125.433594 68.828125 C 127.816406 73.414062 130.851562 76.886719 134.207031 79.453125 L 134.207031 190.292969 C 134.207031 194.722656 137.804688 198.320312 142.238281 198.320312 C 146.671875 198.320312 150.265625 194.722656 150.265625 190.292969 L 150.265625 85.492188 C 153.402344 85.742188 156.433594 85.539062 159.160156 84.988281 C 167.867188 83.246094 173.59375 78.378906 174.097656 72.292969 C 174.3125 69.75 174.785156 68.832031 174.910156 68.625 C 175.777344 68.183594 178.832031 68.046875 180.875 67.960938 C 185.25 67.769531 190.695312 67.53125 196.523438 65.3125 C 211.882812 59.460938 218.414062 53.3125 218.71875 44.285156 C 225.066406 34.71875 225.324219 27.910156 224.183594 22.097656 C 227.738281 20.730469 234.367188 18.980469 239.492188 17.707031 C 239.875 18.304688 240.253906 18.914062 240.648438 19.535156 C 245.296875 26.933594 250.570312 35.3125 260.171875 42.117188 C 261.308594 42.917969 262.253906 43.707031 263.074219 44.484375 L 263.074219 350.46875 C 259.429688 349.882812 254.992188 350.371094 249.210938 351.855469 Z M 387.488281 123.277344 C 377.855469 131.691406 376.339844 147.042969 374.996094 160.585938 C 374.441406 166.214844 373.617188 174.554688 372.167969 177.152344 C 367.667969 178.351562 364.269531 181.414062 360.96875 184.378906 C 357.574219 187.429688 354.371094 190.316406 350.589844 190.730469 C 339.539062 191.945312 331.539062 200.289062 330.679688 211.507812 C 329.886719 221.910156 335.5625 231.140625 344.175781 233.445312 C 350.523438 235.148438 352.574219 236.316406 353.179688 236.769531 C 353.261719 237.285156 353.324219 238.242188 353.371094 238.976562 C 353.535156 241.550781 353.769531 245.191406 355.261719 249.734375 C 355.164062 249.808594 355.074219 249.878906 354.984375 249.941406 C 352.296875 251.96875 347.800781 255.351562 347.921875 261.136719 C 347.976562 263.734375 349.054688 267.53125 353.875 270.847656 C 355.480469 271.953125 356.394531 272.894531 356.882812 273.554688 C 352.449219 273.671875 346.015625 274.726562 343.246094 280.441406 C 339.628906 287.898438 345.472656 294.730469 351.117188 301.339844 C 352.136719 302.53125 353.546875 304.183594 354.660156 305.621094 C 347.691406 311.953125 348.34375 318.960938 349.070312 321.96875 C 350.148438 326.484375 353.132812 330.832031 357.9375 334.894531 C 362 338.324219 365.257812 340.171875 367.632812 340.382812 C 368.84375 340.492188 369.957031 340.578125 370.980469 340.652344 C 370.839844 341.40625 370.714844 342.207031 370.609375 343.050781 C 369.785156 349.773438 364.976562 351.746094 354.96875 354.363281 C 347.992188 356.1875 339.3125 358.457031 337.554688 367.074219 C 336.726562 371.140625 329.84375 374.949219 325.496094 374.714844 C 322.082031 374.535156 319.214844 372.203125 314.816406 368.40625 C 308.949219 363.34375 300.921875 356.410156 288.472656 358.125 C 284.273438 358.703125 281.265625 358.855469 279.132812 358.808594 L 279.132812 64.050781 C 283.214844 66.003906 288.859375 67.171875 297.183594 67.296875 C 297.234375 67.496094 297.277344 67.699219 297.320312 67.882812 C 298.609375 73.4375 301.285156 85.007812 320.171875 86.824219 C 328.75 87.652344 329.921875 89.214844 331.417969 91.191406 C 333.40625 93.832031 336.421875 97.816406 344.238281 99.65625 C 348.972656 100.769531 350.1875 102.121094 352.035156 104.164062 C 354.273438 106.652344 357.34375 110.054688 363.972656 111.40625 L 366.144531 111.851562 C 374.328125 113.507812 387.59375 116.199219 391.515625 118.972656 C 390.976562 119.796875 389.839844 121.222656 387.488281 123.277344 Z M 387.488281 123.277344 " fill-opacity="1" fill-rule="nonzero"/><path fill="rgb(0%, 0%, 0%)" d="M 142.238281 218.394531 C 137.804688 218.394531 134.207031 221.992188 134.207031 226.429688 C 134.207031 230.859375 137.804688 234.457031 142.238281 234.457031 C 146.671875 234.457031 150.265625 230.859375 150.265625 226.429688 L 150.265625 226.417969 C 150.265625 221.988281 146.671875 218.394531 142.238281 218.394531 Z M 142.238281 218.394531 " fill-opacity="1" fill-rule="nonzero"/></svg>